<?xml version="1.0" encoding="UTF-8" standalone="no"?>
<!DOCTYPE svg PUBLIC "-//W3C//DTD SVG 1.1//EN" "http://www.w3.org/Graphics/SVG/1.1/DTD/svg11.dtd">
<svg xmlns="http://www.w3.org/2000/svg" version="1.1" viewBox="0.00 0.00 316.00 300.00">
<g stroke-width="2.00" fill="none" stroke-linecap="butt">
<path stroke="#805c2c" vector-effect="non-scaling-stroke" d="
  M 59.95 182.62
  C 67.04 176.18 75.79 186.25 68.67 192.05
  Q 67.93 192.64 68.52 193.39
  L 82.14 210.82
  Q 82.51 211.29 83.12 211.29
  L 96.35 211.07
  Q 97.00 211.06 97.01 210.41
  L 97.10 201.56
  A 1.37 1.33 -70.7 0 0 96.62 200.52
  Q 80.74 187.15 78.54 165.79
  Q 78.01 160.55 78.14 156.64
  Q 78.23 154.12 80.51 153.02
  Q 81.06 152.75 81.65 152.80
  Q 85.16 153.07 85.36 156.58
  C 86.14 170.77 89.62 187.58 103.81 194.50"
/>
<path stroke="#7f791a" vector-effect="non-scaling-stroke" d="
  M 103.81 194.50
  C 111.68 197.96 120.22 200.26 120.54 210.71
  Q 120.57 211.42 121.27 211.35
  C 122.09 211.28 123.16 211.16 123.99 211.28
  Q 125.12 211.43 125.32 210.34
  C 126.51 203.89 130.75 202.20 136.72 202.36
  Q 144.82 202.58 152.68 202.39
  Q 161.48 202.17 163.10 210.61
  A 0.77 0.76 -3.8 0 0 163.82 211.23
  Q 165.25 211.29 166.65 211.21
  C 167.42 211.17 168.37 211.39 169.08 211.10
  Q 169.65 210.87 169.85 210.15
  C 171.73 203.38 176.55 202.12 182.68 202.34
  C 189.03 202.58 196.53 203.00 202.25 200.61
  Q 214.71 195.39 216.91 181.27
  Q 217.91 174.86 217.52 168.14"
/>
<path stroke="#805c2c" vector-effect="non-scaling-stroke" d="
  M 217.52 168.14
  Q 219.31 162.96 222.93 164.35
  Q 225.56 165.35 225.51 168.07
  C 225.40 173.93 225.29 180.77 223.76 186.35
  Q 218.98 203.79 200.78 209.96
  Q 196.97 211.26 201.00 211.26
  L 226.52 211.23
  Q 227.56 211.23 227.81 210.21
  Q 229.62 202.76 237.24 202.66
  Q 246.86 202.54 256.00 202.42
  Q 259.84 202.36 263.28 205.43"
/>
<path stroke="#814a44" vector-effect="non-scaling-stroke" d="
  M 263.28 205.43
  L 265.18 210.48
  A 1.17 1.15 -10.1 0 0 266.27 211.23
  L 281.35 211.20
  A 2.15 2.14 -76.8 0 0 283.27 210.00
  C 307.96 159.31 295.70 99.41 257.17 59.72
  C 224.54 26.10 174.77 12.36 129.26 22.58
  Q 99.85 29.19 75.20 48.00
  C 52.19 65.57 35.08 92.32 27.85 121.15
  Q 18.61 157.96 30.16 192.88
  Q 33.16 201.94 36.82 210.16
  A 1.66 1.65 77.3 0 0 38.36 211.14
  L 46.58 210.97
  A 1.69 1.67 -71.8 0 0 47.87 210.31
  Q 54.43 201.46 61.04 193.67
  Q 61.56 193.06 61.04 192.44
  Q 56.85 187.42 59.95 182.62"
/>
<path stroke="#fd7f3e" vector-effect="non-scaling-stroke" d="
  M 263.28 205.43
  Q 265.95 198.16 267.34 190.69
  Q 268.77 183.03 269.00 175.25
  Q 269.20 168.11 268.11 161.39"
/>
<path stroke="#fb6d43" vector-effect="non-scaling-stroke" d="
  M 268.11 161.39
  Q 268.59 155.83 266.85 152.57"
/>
<path stroke="#fd7f3e" vector-effect="non-scaling-stroke" d="
  M 266.85 152.57
  Q 267.89 152.39 267.57 150.48
  Q 267.04 147.36 266.89 144.16
  Q 266.86 143.65 266.49 143.29
  L 264.46 141.31"
/>
<path stroke="#814a44" vector-effect="non-scaling-stroke" d="
  M 264.46 141.31
  C 270.29 141.66 277.22 141.99 277.22 134.66
  Q 277.23 125.05 277.31 113.46
  C 277.34 108.37 274.77 105.11 269.25 105.39
  Q 265.48 105.58 253.17 105.32"
/>
<path stroke="#fd7f3e" vector-effect="non-scaling-stroke" d="
  M 253.17 105.32
  L 246.38 90.93"
/>
<path stroke="#814a44" vector-effect="non-scaling-stroke" d="
  M 246.38 90.93
  C 251.59 88.95 252.71 81.28 252.92 76.22
  C 253.39 64.69 247.52 54.34 237.16 49.12
  C 228.43 44.73 217.55 46.25 210.01 52.54
  Q 199.99 60.89 200.30 74.75"
/>
<path stroke="#fd7f3e" vector-effect="non-scaling-stroke" d="
  M 200.30 74.75
  Q 191.88 69.85 181.99 68.20
  Q 165.50 65.44 148.24 66.38"
/>
<path stroke="#814a44" vector-effect="non-scaling-stroke" d="
  M 148.24 66.38
  Q 145.13 55.47 136.13 55.08
  C 126.44 54.66 120.53 61.93 121.85 71.54"
/>
<path stroke="#fd7f3e" vector-effect="non-scaling-stroke" d="
  M 121.85 71.54
  Q 121.24 71.89 121.07 72.41
  Q 120.92 72.91 120.44 73.14
  L 109.92 78.17
  Q 109.46 78.39 108.96 78.26
  L 106.97 77.73"
/>
<path stroke="#814a44" vector-effect="non-scaling-stroke" d="
  M 106.97 77.73
  Q 102.22 61.73 86.95 58.65
  C 80.06 57.26 73.47 58.60 67.67 62.50
  Q 56.36 70.13 56.21 83.39
  C 56.09 93.80 61.66 101.92 70.68 106.91"
/>
<path stroke="#fd7f3e" vector-effect="non-scaling-stroke" d="
  M 70.68 106.91
  L 61.21 124.54"
/>
<path stroke="#814a44" vector-effect="non-scaling-stroke" d="
  M 61.21 124.54
  C 51.73 121.66 41.89 127.55 40.72 137.23
  C 39.51 147.30 47.63 155.18 57.67 155.02"
/>
<path stroke="#fd7f3e" vector-effect="non-scaling-stroke" d="
  M 57.67 155.02
  Q 56.52 169.08 59.95 182.62"
/>
<path stroke="#fcae14" vector-effect="non-scaling-stroke" d="
  M 110.31 153.27
  L 104.86 170.44"
/>
<path stroke="#805c2c" vector-effect="non-scaling-stroke" d="
  M 104.86 170.44
  C 94.47 175.18 93.74 188.58 104.47 193.77"
/>
<path stroke="#fcae14" vector-effect="non-scaling-stroke" d="
  M 104.47 193.77
  Q 103.80 193.88 103.81 194.50"
/>
<path stroke="#805c2c" vector-effect="non-scaling-stroke" d="
  M 57.67 155.02
  Q 68.99 153.13 71.20 143.65
  Q 72.60 137.64 70.24 132.53
  Q 67.68 126.99 61.21 124.54"
/>
<path stroke="#805c2c" vector-effect="non-scaling-stroke" d="
  M 253.17 105.32
  Q 248.11 105.43 243.65 105.46
  C 238.22 105.50 236.15 108.73 236.19 113.87
  Q 236.31 132.30 236.17 149.21
  A 2.68 2.67 20.8 0 0 237.09 151.25
  Q 238.59 152.57 239.87 152.24
  Q 242.52 151.58 242.53 148.85
  L 242.54 142.00
  A 0.57 0.57 0.0 0 1 243.11 141.43
  L 264.46 141.31"
/>
<path stroke="#fa7f2b" vector-effect="non-scaling-stroke" d="
  M 266.85 152.57
  Q 261.78 150.97 259.60 154.74
  Q 259.27 155.31 258.62 155.32
  C 256.58 155.35 254.70 154.82 252.66 155.28
  C 247.12 156.54 244.81 163.84 250.75 166.65
  C 253.91 168.15 257.64 164.39 258.18 161.71
  Q 258.27 161.27 258.65 161.04
  Q 260.88 159.68 262.76 160.43
  Q 265.63 161.56 268.11 161.39"
/>
<path stroke="#fcae14" vector-effect="non-scaling-stroke" d="
  M 217.52 168.14
  Q 214.53 156.17 208.17 146.61
  C 195.54 127.63 173.23 119.24 151.02 123.32
  C 138.31 125.66 127.56 132.69 119.15 142.19
  Q 118.68 142.72 116.85 145.64
  Q 115.62 147.63 113.71 148.55"
/>
<path stroke="#805c2c" vector-effect="non-scaling-stroke" d="
  M 106.97 77.73
  Q 110.26 91.91 100.85 101.67
  Q 100.31 102.23 100.68 102.92
  Q 101.94 105.24 103.25 107.83
  C 104.67 110.61 102.72 112.21 100.80 113.67
  A 0.74 0.73 -38.7 0 0 100.68 114.73
  C 105.68 120.66 106.49 127.68 107.98 135.24
  Q 109.40 142.47 113.71 148.55"
/>
<path stroke="#7f791a" vector-effect="non-scaling-stroke" d="
  M 113.71 148.55
  Q 117.54 154.31 124.21 159.58
  Q 125.21 160.38 124.44 162.23
  Q 124.27 162.65 123.81 162.90
  Q 121.73 164.03 119.86 162.59
  Q 114.02 158.11 110.31 153.27"
/>
<path stroke="#805c2c" vector-effect="non-scaling-stroke" d="
  M 110.31 153.27
  Q 104.02 145.19 101.99 134.73
  Q 101.40 131.65 100.43 126.71
  Q 99.43 121.65 95.71 117.30
  A 0.84 0.83 -29.9 0 0 94.80 117.06
  Q 91.35 118.33 89.61 115.65
  Q 87.92 113.04 86.22 110.23
  A 1.03 1.02 -17.8 0 0 85.24 109.73
  Q 77.07 110.41 70.68 106.91"
/>
<path stroke="#805c2c" vector-effect="non-scaling-stroke" d="
  M 246.38 90.93
  Q 242.32 91.57 239.85 88.56
  A 1.06 1.06 0.0 0 0 238.02 88.91
  Q 235.06 97.98 231.80 107.10
  C 230.18 111.62 229.94 116.09 229.52 120.83
  Q 229.02 126.42 223.84 127.45
  C 219.11 128.40 214.35 126.32 214.51 120.78
  Q 214.65 115.73 215.41 110.50
  Q 215.84 107.54 215.32 104.45
  Q 213.87 95.87 212.63 86.77
  Q 212.40 85.09 210.75 85.46
  C 209.73 85.69 208.75 86.40 207.64 86.53
  C 200.86 87.31 199.81 80.01 200.30 74.75"
/>
<path stroke="#805c2c" vector-effect="non-scaling-stroke" d="
  M 148.24 66.38
  Q 149.25 73.51 144.05 78.06
  C 135.99 85.11 125.13 81.48 121.85 71.54"
/>
<path stroke="#7f791a" vector-effect="non-scaling-stroke" d="
  M 104.47 193.77
  Q 111.46 196.18 116.93 191.74
  C 120.58 188.77 122.86 183.77 121.42 179.21
  Q 117.63 167.23 104.86 170.44"
/>
<path stroke="#7e9190" vector-effect="non-scaling-stroke" d="
  M 54.98 210.77
  A 0.31 0.31 0.0 0 0 55.22 211.28
  L 74.42 211.18
  A 0.31 0.31 0.0 0 0 74.66 210.66
  L 65.00 199.39
  A 0.31 0.31 0.0 0 0 64.52 199.40
  L 54.98 210.77"
/>
<path stroke="#14877a" vector-effect="non-scaling-stroke" d="
  M 189.45 283.50
  L 189.48 219.07
  Q 189.48 218.02 188.43 218.02
  Q 120.38 218.00 56.00 217.92
  Q 48.96 217.92 41.66 217.88
  A 0.41 0.41 0.0 0 0 41.30 218.48
  Q 43.22 222.24 45.92 226.20
  Q 66.36 256.14 100.20 272.71
  Q 142.13 293.24 188.84 284.24
  A 0.76 0.75 -5.6 0 0 189.45 283.50"
/>
<path stroke="#805c2c" vector-effect="non-scaling-stroke" d="
  M 196.54 282.11
  C 230.96 272.64 259.47 249.65 278.62 218.84
  A 0.43 0.43 0.0 0 0 278.25 218.19
  L 196.49 218.22
  A 0.29 0.28 90.0 0 0 196.21 218.51
  L 196.09 281.76
  A 0.36 0.36 0.0 0 0 196.54 282.11"
/>
<path stroke="#814a44" vector-effect="non-scaling-stroke" d="
  M 180.34 59.11
  Q 181.43 58.49 182.67 58.15
  C 184.14 57.75 185.28 56.29 184.39 54.82
  A 1.75 1.74 80.1 0 0 183.22 53.99
  Q 180.48 53.45 179.53 50.96
  C 178.74 48.89 176.58 47.45 174.60 49.05
  A 2.65 2.65 0.0 0 0 173.73 50.29
  Q 172.89 52.75 170.54 53.43
  C 169.01 53.87 167.49 55.46 168.55 57.11
  A 1.62 1.61 -5.5 0 0 169.31 57.73
  L 172.21 58.90
  A 1.44 1.42 -0.4 0 1 172.96 59.63
  L 174.25 62.58
  Q 174.52 63.20 175.17 63.39
  Q 176.83 63.87 178.24 63.09
  Q 178.74 62.81 178.93 62.27
  L 179.74 59.85
  Q 179.90 59.37 180.34 59.11"
/>
<path stroke="#814a44" vector-effect="non-scaling-stroke" d="
  M 50.6277 169.8558
  A 1.62 1.62 0.0 0 0 50.5438 167.5663
  L 49.0640 166.1912
  A 1.62 1.62 0.0 0 0 46.7746 166.2752
  L 45.3723 167.7842
  A 1.62 1.62 0.0 0 0 45.4562 170.0737
  L 46.9360 171.4488
  A 1.62 1.62 0.0 0 0 49.2254 171.3648
  L 50.6277 169.8558"
/>
<path stroke="#7f791a" vector-effect="non-scaling-stroke" d="
  M 207.74 80.49
  C 210.83 78.50 213.93 79.18 216.18 81.86
  A 0.91 0.90 -31.7 0 0 217.26 82.11
  L 220.00 80.88
  Q 220.49 80.66 220.51 80.13
  Q 221.00 68.61 222.16 61.17
  Q 222.80 56.99 224.79 53.23
  Q 225.11 52.63 224.44 52.74
  C 210.31 55.11 205.24 66.86 206.67 79.98
  A 0.70 0.70 0.0 0 0 207.74 80.49"
/>
<path stroke="#7f454c" vector-effect="non-scaling-stroke" d="
  M 240.63 82.25
  C 242.15 82.49 243.02 83.65 244.10 84.59
  A 0.49 0.49 0.0 0 0 244.89 84.36
  C 248.65 71.63 244.88 59.24 232.17 53.62
  Q 230.98 53.09 231.56 54.26
  Q 233.21 57.58 233.41 61.05
  Q 233.82 68.32 232.28 79.91
  C 232.05 81.58 233.38 82.89 234.79 83.44
  Q 235.49 83.72 236.10 83.29
  Q 238.15 81.84 240.63 82.25"
/>
<path stroke="#805c2c" vector-effect="non-scaling-stroke" d="
  M 224.85 109.45
  C 227.10 102.91 229.81 95.93 231.58 89.16
  Q 232.13 87.06 230.31 88.23
  C 225.98 90.99 223.63 88.86 219.85 86.98
  Q 219.09 86.60 219.02 87.45
  Q 218.97 88.06 219.06 88.75
  Q 220.42 98.51 221.63 108.31
  Q 221.82 109.85 223.05 110.30
  A 1.40 1.39 19.5 0 0 224.85 109.45"
/>
<path stroke="#805c2c" vector-effect="non-scaling-stroke" d="
  M 223.62 115.31
  L 221.27 115.10
  A 0.85 0.85 0.0 0 0 220.35 115.87
  L 220.01 119.68
  A 2.27 1.83 -85.0 0 0 221.64 122.10
  L 222.04 122.13
  A 2.27 1.83 -85.0 0 0 224.06 120.03
  L 224.39 116.23
  A 0.85 0.85 0.0 0 0 223.62 115.31"
/>
<path stroke="#14877a" vector-effect="non-scaling-stroke" d="
  M 135.4052 75.9275
  A 7.56 7.32 86.7 0 0 142.2779 67.9586
  A 7.56 7.32 86.7 0 0 134.5348 60.8325
  A 7.56 7.32 86.7 0 0 127.6621 68.8014
  A 7.56 7.32 86.7 0 0 135.4052 75.9275"
/>
<path stroke="#14877a" vector-effect="non-scaling-stroke" d="
  M 96.0643 98.2421
  A 20.08 19.66 45.5 0 0 96.0125 70.1401
  A 20.08 19.66 45.5 0 0 67.9157 69.5979
  A 20.08 19.66 45.5 0 0 67.9675 97.6999
  A 20.08 19.66 45.5 0 0 96.0643 98.2421"
/>
<path stroke="#7e9190" vector-effect="non-scaling-stroke" d="
  M 92.77 107.61
  A 1.04 1.04 0.0 0 0 92.40 108.99
  L 93.38 110.80
  A 1.04 1.04 0.0 0 0 95.08 111.00
  L 96.66 109.22
  A 1.04 1.04 0.0 0 0 96.75 107.95
  L 95.99 106.81
  A 1.04 1.04 0.0 0 0 94.59 106.50
  L 92.77 107.61"
/>
<path stroke="#8ff1d8" vector-effect="non-scaling-stroke" d="
  M 76.8809 72.9160
  A 4.42 3.18 -40.9 0 0 71.4579 73.4064
  A 4.42 3.18 -40.9 0 0 70.1991 78.7040
  A 4.42 3.18 -40.9 0 0 75.6221 78.2136
  A 4.42 3.18 -40.9 0 0 76.8809 72.9160"
/>
<path stroke="#8ff1d8" vector-effect="non-scaling-stroke" d="
  M 72.1412 86.7002
  A 3.19 2.74 48.8 0 0 72.1016 82.4952
  A 3.19 2.74 48.8 0 0 67.9388 81.8998
  A 3.19 2.74 48.8 0 0 67.9784 86.1048
  A 3.19 2.74 48.8 0 0 72.1412 86.7002"
/>
<path stroke="#fa7f2b" vector-effect="non-scaling-stroke" d="
  M 178.7566 83.5668
  A 3.06 2.79 69.0 0 0 180.2647 79.7102
  A 3.06 2.79 69.0 0 0 176.5634 77.8532
  A 3.06 2.79 69.0 0 0 175.0553 81.7098
  A 3.06 2.79 69.0 0 0 178.7566 83.5668"
/>
<path stroke="#805c2c" vector-effect="non-scaling-stroke" d="
  M 136.99 98.80
  C 139.13 100.64 141.94 100.38 142.73 97.31
  C 143.45 94.56 140.80 92.46 138.31 93.78
  Q 134.28 95.92 129.95 98.17
  A 1.82 1.81 72.8 0 0 128.99 100.00
  L 129.35 102.90
  Q 129.42 103.52 129.02 103.98
  C 127.22 106.03 126.73 109.63 129.75 110.86
  C 134.00 112.58 136.22 107.47 134.04 104.22
  Q 133.33 103.17 132.55 102.21
  A 1.25 1.25 0.0 0 1 132.96 100.30
  L 136.17 98.70
  Q 136.62 98.48 136.99 98.80"
/>
<path stroke="#805c2c" vector-effect="non-scaling-stroke" d="
  M 195.5553 103.4193
  A 2.53 2.53 0.0 0 0 194.3375 100.0550
  L 181.7138 94.1417
  A 2.53 2.53 0.0 0 0 178.3495 95.3595
  L 178.2647 95.5407
  A 2.53 2.53 0.0 0 0 179.4825 98.9050
  L 192.1062 104.8183
  A 2.53 2.53 0.0 0 0 195.4705 103.6005
  L 195.5553 103.4193"
/>
<path stroke="#805c2c" vector-effect="non-scaling-stroke" d="
  M 247.7374 198.8585
  A 12.37 12.23 82.3 0 0 258.1997 184.9613
  A 12.37 12.23 82.3 0 0 244.4226 174.3415
  A 12.37 12.23 82.3 0 0 233.9603 188.2387
  A 12.37 12.23 82.3 0 0 247.7374 198.8585"
/>
<path stroke="#7e9190" vector-effect="non-scaling-stroke" d="
  M 271.1004 112.1950
  A 0.57 0.57 0.0 0 0 270.5294 111.6260
  L 243.0294 111.6740
  A 0.57 0.57 0.0 0 0 242.4604 112.2450
  L 242.4996 134.7050
  A 0.57 0.57 0.0 0 0 243.0706 135.2740
  L 270.5706 135.2260
  A 0.57 0.57 0.0 0 0 271.1396 134.6550
  L 271.1004 112.1950"
/>
<path stroke="#fae378" vector-effect="non-scaling-stroke" d="
  M 261.01 123.35
  Q 259.96 122.48 259.14 121.32
  Q 258.87 120.95 259.04 120.53
  Q 259.37 119.66 260.34 119.16
  Q 262.05 118.28 260.40 117.30
  Q 259.80 116.95 259.07 116.77
  Q 257.53 116.41 256.93 117.87
  L 255.58 121.13
  A 2.53 2.52 -65.2 0 0 256.75 124.34
  L 259.23 125.62
  Q 259.71 125.87 259.79 126.40
  L 260.11 128.30
  A 1.40 1.40 0.0 0 0 262.17 129.30
  Q 265.21 127.61 267.87 124.52
  Q 269.47 122.67 267.60 121.09
  Q 267.42 120.93 267.21 120.79
  Q 265.21 119.47 263.90 121.48
  Q 263.20 122.57 262.21 123.36
  Q 261.61 123.84 261.01 123.35"
/>
<path stroke="#fbc68a" vector-effect="non-scaling-stroke" d="
  M 253.25 123.43
  A 1.79 1.79 0.0 0 0 253.07 120.57
  L 251.36 119.46
  A 1.79 1.79 0.0 0 0 249.05 119.78
  L 246.51 122.65
  A 1.79 1.79 0.0 0 0 246.49 124.99
  L 247.41 126.07
  A 1.79 1.79 0.0 0 0 249.93 126.27
  L 253.25 123.43"
/>
<path stroke="#fae378" vector-effect="non-scaling-stroke" d="
  M 163.5115 136.1480
  A 4.06 3.42 -3.7 0 0 159.2393 132.9971
  A 4.06 3.42 -3.7 0 0 155.4085 136.6720
  A 4.06 3.42 -3.7 0 0 159.6807 139.8229
  A 4.06 3.42 -3.7 0 0 163.5115 136.1480"
/>
<path stroke="#fae378" vector-effect="non-scaling-stroke" d="
  M 135.70 152.25
  L 146.66 141.92
  A 1.53 1.53 0.0 0 0 146.73 139.76
  L 146.01 139.00
  A 5.89 4.28 -43.3 0 0 138.78 139.92
  L 134.17 144.27
  A 5.89 4.28 -43.3 0 0 132.82 151.42
  L 133.54 152.19
  A 1.53 1.53 0.0 0 0 135.70 152.25"
/>
<path stroke="#7f791a" vector-effect="non-scaling-stroke" d="
  M 155.89 186.64
  A 12.41 12.41 0.0 0 0 143.48 174.23
  A 12.41 12.41 0.0 0 0 131.07 186.64
  A 12.41 12.41 0.0 0 0 143.48 199.05
  A 12.41 12.41 0.0 0 0 155.89 186.64"
/>
<path stroke="#7f791a" vector-effect="non-scaling-stroke" d="
  M 200.99 186.60
  A 12.44 12.44 0.0 0 0 188.55 174.16
  A 12.44 12.44 0.0 0 0 176.11 186.60
  A 12.44 12.44 0.0 0 0 188.55 199.04
  A 12.44 12.44 0.0 0 0 200.99 186.60"
/>
<path stroke="#7f454c" vector-effect="non-scaling-stroke" d="
  M 46.64 140.21
  A 9.70 9.67 -79.0 0 0 51.84 147.93
  A 9.68 9.67 27.8 0 0 64.80 143.92
  A 9.68 9.67 -59.2 0 0 61.61 131.25"
/>
<path stroke="#7e9190" vector-effect="non-scaling-stroke" d="
  M 61.61 131.25
  A 9.68 9.68 0.0 0 0 46.64 140.21"
/>
<path stroke="#faafaa" vector-effect="non-scaling-stroke" d="
  M 61.61 131.25
  Q 55.24 134.17 53.14 135.89
  Q 49.16 139.14 46.64 140.21"
/>
<path stroke="#14877a" vector-effect="non-scaling-stroke" d="
  M 167.46 268.98
  C 174.84 267.80 179.80 259.86 175.39 252.99
  C 172.61 248.65 166.90 248.18 162.20 247.24
  C 158.67 246.53 156.76 241.95 160.87 240.62
  Q 165.87 239.00 169.52 242.64
  C 172.87 246.00 178.18 240.93 174.45 237.19
  C 172.52 235.27 169.99 234.28 167.45 233.43
  C 166.43 233.09 166.18 232.21 166.07 231.25
  Q 165.82 229.14 163.10 229.47
  A 1.77 1.76 81.2 0 0 161.58 231.56
  Q 161.99 233.68 159.98 233.96
  C 156.93 234.38 153.92 236.66 152.54 239.04
  C 148.85 245.43 153.00 251.92 159.70 253.76
  Q 162.70 254.59 166.03 255.15
  C 170.11 255.84 171.50 260.75 167.10 262.03
  Q 160.82 263.84 157.30 259.22
  C 154.31 255.30 148.07 259.29 151.55 264.13
  Q 154.43 268.13 160.39 268.82
  Q 161.74 268.98 161.60 270.33
  C 161.15 274.92 166.46 274.42 166.38 270.28
  Q 166.36 269.16 167.46 268.98"
/>
<path stroke="#14877a" vector-effect="non-scaling-stroke" d="
  M 138.4297 241.6647
  A 2.67 2.67 0.0 0 0 135.7504 239.0040
  L 80.7307 239.1960
  A 2.67 2.67 0.0 0 0 78.0700 241.8753
  L 78.0703 241.9553
  A 2.67 2.67 0.0 0 0 80.7496 244.6160
  L 135.7693 244.4240
  A 2.67 2.67 0.0 0 0 138.4300 241.7447
  L 138.4297 241.6647"
/>
<path stroke="#14877a" vector-effect="non-scaling-stroke" d="
  M 138.0000 254.6644
  A 2.85 2.85 0.0 0 0 135.1550 251.8094
  L 89.9551 251.7306
  A 2.85 2.85 0.0 0 0 87.1001 254.5756
  L 87.1000 254.6756
  A 2.85 2.85 0.0 0 0 89.9450 257.5306
  L 135.1449 257.6094
  A 2.85 2.85 0.0 0 0 137.9999 254.7644
  L 138.0000 254.6644"
/>
<path stroke="#805c2c" vector-effect="non-scaling-stroke" d="
  M 246.95 234.79
  Q 247.43 234.00 248.07 233.39
  Q 248.55 232.93 248.62 232.28
  Q 248.74 231.10 247.15 230.96
  A 1.90 1.81 33.8 0 0 246.17 231.13
  C 243.33 232.47 242.61 231.86 239.94 230.83
  Q 239.47 230.65 239.03 230.90
  Q 238.46 231.21 238.34 231.86
  C 238.11 233.11 239.20 234.05 239.47 235.25
  Q 239.59 235.76 239.40 236.25
  L 238.39 238.98
  A 1.35 1.35 0.0 0 0 239.83 240.79
  Q 241.60 240.56 242.81 239.48
  Q 243.27 239.07 243.79 239.39
  C 245.07 240.16 246.11 241.14 247.63 240.34
  A 1.18 1.18 0.0 0 0 248.16 238.83
  L 246.88 235.85
  Q 246.64 235.30 246.95 234.79"
/>
<path stroke="#805c2c" vector-effect="non-scaling-stroke" d="
  M 222.6760 232.3424
  A 0.82 0.82 0.0 0 0 221.8646 231.5138
  L 217.3449 231.4665
  A 0.82 0.82 0.0 0 0 216.5163 232.2779
  L 216.4640 237.2776
  A 0.82 0.82 0.0 0 0 217.2754 238.1062
  L 221.7951 238.1535
  A 0.82 0.82 0.0 0 0 222.6237 237.3421
  L 222.6760 232.3424"
/>
<path stroke="#805c2c" vector-effect="non-scaling-stroke" d="
  M 216.27 249.23
  L 216.48 255.83
  Q 216.53 257.63 218.33 257.50
  L 221.43 257.28
  Q 222.79 257.18 222.78 255.82
  L 222.74 249.19
  A 0.90 0.89 -2.8 0 1 223.56 248.29
  L 229.05 247.80
  Q 230.50 247.67 230.52 246.21
  L 230.57 242.37
  Q 230.60 240.45 228.71 240.78
  C 226.07 241.25 224.16 242.85 221.52 243.20
  Q 215.90 243.92 211.04 241.18
  A 1.43 1.43 0.0 0 0 208.93 242.14
  Q 208.52 244.20 208.77 246.63
  Q 208.90 247.98 210.26 248.07
  L 215.48 248.41
  Q 216.25 248.45 216.27 249.23"
/>
</g>
<path fill="#032732" d="
  M 303.1201 160.5371
  A 143.44 141.13 3.1 0 1 152.2579 293.7035
  A 143.44 141.13 3.1 0 1 16.6599 145.0229
  A 143.44 141.13 3.1 0 1 167.5221 11.8565
  A 143.44 141.13 3.1 0 1 303.1201 160.5371
  Z
  M 59.95 182.62
  C 67.04 176.18 75.79 186.25 68.67 192.05
  Q 67.93 192.64 68.52 193.39
  L 82.14 210.82
  Q 82.51 211.29 83.12 211.29
  L 96.35 211.07
  Q 97.00 211.06 97.01 210.41
  L 97.10 201.56
  A 1.37 1.33 -70.7 0 0 96.62 200.52
  Q 80.74 187.15 78.54 165.79
  Q 78.01 160.55 78.14 156.64
  Q 78.23 154.12 80.51 153.02
  Q 81.06 152.75 81.65 152.80
  Q 85.16 153.07 85.36 156.58
  C 86.14 170.77 89.62 187.58 103.81 194.50
  C 111.68 197.96 120.22 200.26 120.54 210.71
  Q 120.57 211.42 121.27 211.35
  C 122.09 211.28 123.16 211.16 123.99 211.28
  Q 125.12 211.43 125.32 210.34
  C 126.51 203.89 130.75 202.20 136.72 202.36
  Q 144.82 202.58 152.68 202.39
  Q 161.48 202.17 163.10 210.61
  A 0.77 0.76 -3.8 0 0 163.82 211.23
  Q 165.25 211.29 166.65 211.21
  C 167.42 211.17 168.37 211.39 169.08 211.10
  Q 169.65 210.87 169.85 210.15
  C 171.73 203.38 176.55 202.12 182.68 202.34
  C 189.03 202.58 196.53 203.00 202.25 200.61
  Q 214.71 195.39 216.91 181.27
  Q 217.91 174.86 217.52 168.14
  Q 219.31 162.96 222.93 164.35
  Q 225.56 165.35 225.51 168.07
  C 225.40 173.93 225.29 180.77 223.76 186.35
  Q 218.98 203.79 200.78 209.96
  Q 196.97 211.26 201.00 211.26
  L 226.52 211.23
  Q 227.56 211.23 227.81 210.21
  Q 229.62 202.76 237.24 202.66
  Q 246.86 202.54 256.00 202.42
  Q 259.84 202.36 263.28 205.43
  L 265.18 210.48
  A 1.17 1.15 -10.1 0 0 266.27 211.23
  L 281.35 211.20
  A 2.15 2.14 -76.8 0 0 283.27 210.00
  C 307.96 159.31 295.70 99.41 257.17 59.72
  C 224.54 26.10 174.77 12.36 129.26 22.58
  Q 99.85 29.19 75.20 48.00
  C 52.19 65.57 35.08 92.32 27.85 121.15
  Q 18.61 157.96 30.16 192.88
  Q 33.16 201.94 36.82 210.16
  A 1.66 1.65 77.3 0 0 38.36 211.14
  L 46.58 210.97
  A 1.69 1.67 -71.8 0 0 47.87 210.31
  Q 54.43 201.46 61.04 193.67
  Q 61.56 193.06 61.04 192.44
  Q 56.85 187.42 59.95 182.62
  Z
  M 54.98 210.77
  A 0.31 0.31 0.0 0 0 55.22 211.28
  L 74.42 211.18
  A 0.31 0.31 0.0 0 0 74.66 210.66
  L 65.00 199.39
  A 0.31 0.31 0.0 0 0 64.52 199.40
  L 54.98 210.77
  Z
  M 189.45 283.50
  L 189.48 219.07
  Q 189.48 218.02 188.43 218.02
  Q 120.38 218.00 56.00 217.92
  Q 48.96 217.92 41.66 217.88
  A 0.41 0.41 0.0 0 0 41.30 218.48
  Q 43.22 222.24 45.92 226.20
  Q 66.36 256.14 100.20 272.71
  Q 142.13 293.24 188.84 284.24
  A 0.76 0.75 -5.6 0 0 189.45 283.50
  Z
  M 196.54 282.11
  C 230.96 272.64 259.47 249.65 278.62 218.84
  A 0.43 0.43 0.0 0 0 278.25 218.19
  L 196.49 218.22
  A 0.29 0.28 90.0 0 0 196.21 218.51
  L 196.09 281.76
  A 0.36 0.36 0.0 0 0 196.54 282.11
  Z"
/>
<path fill="#fe6d56" d="
  M 263.28 205.43
  Q 265.95 198.16 267.34 190.69
  Q 268.77 183.03 269.00 175.25
  Q 269.20 168.11 268.11 161.39
  Q 268.59 155.83 266.85 152.57
  Q 267.89 152.39 267.57 150.48
  Q 267.04 147.36 266.89 144.16
  Q 266.86 143.65 266.49 143.29
  L 264.46 141.31
  C 270.29 141.66 277.22 141.99 277.22 134.66
  Q 277.23 125.05 277.31 113.46
  C 277.34 108.37 274.77 105.11 269.25 105.39
  Q 265.48 105.58 253.17 105.32
  L 246.38 90.93
  C 251.59 88.95 252.71 81.28 252.92 76.22
  C 253.39 64.69 247.52 54.34 237.16 49.12
  C 228.43 44.73 217.55 46.25 210.01 52.54
  Q 199.99 60.89 200.30 74.75
  Q 191.88 69.85 181.99 68.20
  Q 165.50 65.44 148.24 66.38
  Q 145.13 55.47 136.13 55.08
  C 126.44 54.66 120.53 61.93 121.85 71.54
  Q 121.24 71.89 121.07 72.41
  Q 120.92 72.91 120.44 73.14
  L 109.92 78.17
  Q 109.46 78.39 108.96 78.26
  L 106.97 77.73
  Q 102.22 61.73 86.95 58.65
  C 80.06 57.26 73.47 58.60 67.67 62.50
  Q 56.36 70.13 56.21 83.39
  C 56.09 93.80 61.66 101.92 70.68 106.91
  L 61.21 124.54
  C 51.73 121.66 41.89 127.55 40.72 137.23
  C 39.51 147.30 47.63 155.18 57.67 155.02
  Q 56.52 169.08 59.95 182.62
  Q 56.85 187.42 61.04 192.44
  Q 61.56 193.06 61.04 193.67
  Q 54.43 201.46 47.87 210.31
  A 1.69 1.67 -71.8 0 1 46.58 210.97
  L 38.36 211.14
  A 1.66 1.65 77.3 0 1 36.82 210.16
  Q 33.16 201.94 30.16 192.88
  Q 18.61 157.96 27.85 121.15
  C 35.08 92.32 52.19 65.57 75.20 48.00
  Q 99.85 29.19 129.26 22.58
  C 174.77 12.36 224.54 26.10 257.17 59.72
  C 295.70 99.41 307.96 159.31 283.27 210.00
  A 2.15 2.14 -76.8 0 1 281.35 211.20
  L 266.27 211.23
  A 1.17 1.15 -10.1 0 1 265.18 210.48
  L 263.28 205.43
  Z
  M 180.34 59.11
  Q 181.43 58.49 182.67 58.15
  C 184.14 57.75 185.28 56.29 184.39 54.82
  A 1.75 1.74 80.1 0 0 183.22 53.99
  Q 180.48 53.45 179.53 50.96
  C 178.74 48.89 176.58 47.45 174.60 49.05
  A 2.65 2.65 0.0 0 0 173.73 50.29
  Q 172.89 52.75 170.54 53.43
  C 169.01 53.87 167.49 55.46 168.55 57.11
  A 1.62 1.61 -5.5 0 0 169.31 57.73
  L 172.21 58.90
  A 1.44 1.42 -0.4 0 1 172.96 59.63
  L 174.25 62.58
  Q 174.52 63.20 175.17 63.39
  Q 176.83 63.87 178.24 63.09
  Q 178.74 62.81 178.93 62.27
  L 179.74 59.85
  Q 179.90 59.37 180.34 59.11
  Z
  M 50.6277 169.8558
  A 1.62 1.62 0.0 0 0 50.5438 167.5663
  L 49.0640 166.1912
  A 1.62 1.62 0.0 0 0 46.7746 166.2752
  L 45.3723 167.7842
  A 1.62 1.62 0.0 0 0 45.4562 170.0737
  L 46.9360 171.4488
  A 1.62 1.62 0.0 0 0 49.2254 171.3648
  L 50.6277 169.8558
  Z"
/>
<path fill="#032732" d="
  M 246.38 90.93
  Q 242.32 91.57 239.85 88.56
  A 1.06 1.06 0.0 0 0 238.02 88.91
  Q 235.06 97.98 231.80 107.10
  C 230.18 111.62 229.94 116.09 229.52 120.83
  Q 229.02 126.42 223.84 127.45
  C 219.11 128.40 214.35 126.32 214.51 120.78
  Q 214.65 115.73 215.41 110.50
  Q 215.84 107.54 215.32 104.45
  Q 213.87 95.87 212.63 86.77
  Q 212.40 85.09 210.75 85.46
  C 209.73 85.69 208.75 86.40 207.64 86.53
  C 200.86 87.31 199.81 80.01 200.30 74.75
  Q 199.99 60.89 210.01 52.54
  C 217.55 46.25 228.43 44.73 237.16 49.12
  C 247.52 54.34 253.39 64.69 252.92 76.22
  C 252.71 81.28 251.59 88.95 246.38 90.93
  Z
  M 207.74 80.49
  C 210.83 78.50 213.93 79.18 216.18 81.86
  A 0.91 0.90 -31.7 0 0 217.26 82.11
  L 220.00 80.88
  Q 220.49 80.66 220.51 80.13
  Q 221.00 68.61 222.16 61.17
  Q 222.80 56.99 224.79 53.23
  Q 225.11 52.63 224.44 52.74
  C 210.31 55.11 205.24 66.86 206.67 79.98
  A 0.70 0.70 0.0 0 0 207.74 80.49
  Z
  M 240.63 82.25
  C 242.15 82.49 243.02 83.65 244.10 84.59
  A 0.49 0.49 0.0 0 0 244.89 84.36
  C 248.65 71.63 244.88 59.24 232.17 53.62
  Q 230.98 53.09 231.56 54.26
  Q 233.21 57.58 233.41 61.05
  Q 233.82 68.32 232.28 79.91
  C 232.05 81.58 233.38 82.89 234.79 83.44
  Q 235.49 83.72 236.10 83.29
  Q 238.15 81.84 240.63 82.25
  Z
  M 224.85 109.45
  C 227.10 102.91 229.81 95.93 231.58 89.16
  Q 232.13 87.06 230.31 88.23
  C 225.98 90.99 223.63 88.86 219.85 86.98
  Q 219.09 86.60 219.02 87.45
  Q 218.97 88.06 219.06 88.75
  Q 220.42 98.51 221.63 108.31
  Q 221.82 109.85 223.05 110.30
  A 1.40 1.39 19.5 0 0 224.85 109.45
  Z
  M 223.62 115.31
  L 221.27 115.10
  A 0.85 0.85 0.0 0 0 220.35 115.87
  L 220.01 119.68
  A 2.27 1.83 -85.0 0 0 221.64 122.10
  L 222.04 122.13
  A 2.27 1.83 -85.0 0 0 224.06 120.03
  L 224.39 116.23
  A 0.85 0.85 0.0 0 0 223.62 115.31
  Z"
/>
<path fill="#032732" d="
  M 179.74 59.85
  L 178.93 62.27
  Q 178.74 62.81 178.24 63.09
  Q 176.83 63.87 175.17 63.39
  Q 174.52 63.20 174.25 62.58
  L 172.96 59.63
  A 1.44 1.42 -0.4 0 0 172.21 58.90
  L 169.31 57.73
  A 1.62 1.61 -5.5 0 1 168.55 57.11
  C 167.49 55.46 169.01 53.87 170.54 53.43
  Q 172.89 52.75 173.73 50.29
  A 2.65 2.65 0.0 0 1 174.60 49.05
  C 176.58 47.45 178.74 48.89 179.53 50.96
  Q 180.48 53.45 183.22 53.99
  A 1.75 1.74 80.1 0 1 184.39 54.82
  C 185.28 56.29 184.14 57.75 182.67 58.15
  Q 181.43 58.49 180.34 59.11
  Q 179.90 59.37 179.74 59.85
  Z"
/>
<path fill="#fbcb01" d="
  M 216.18 81.86
  C 213.93 79.18 210.83 78.50 207.74 80.49
  A 0.70 0.70 0.0 0 1 206.67 79.98
  C 205.24 66.86 210.31 55.11 224.44 52.74
  Q 225.11 52.63 224.79 53.23
  Q 222.80 56.99 222.16 61.17
  Q 221.00 68.61 220.51 80.13
  Q 220.49 80.66 220.00 80.88
  L 217.26 82.11
  A 0.91 0.90 -31.7 0 1 216.18 81.86
  Z"
/>
<path fill="#fb6265" d="
  M 240.63 82.25
  Q 238.15 81.84 236.10 83.29
  Q 235.49 83.72 234.79 83.44
  C 233.38 82.89 232.05 81.58 232.28 79.91
  Q 233.82 68.32 233.41 61.05
  Q 233.21 57.58 231.56 54.26
  Q 230.98 53.09 232.17 53.62
  C 244.88 59.24 248.65 71.63 244.89 84.36
  A 0.49 0.49 0.0 0 1 244.10 84.59
  C 243.02 83.65 242.15 82.49 240.63 82.25
  Z"
/>
<path fill="#032732" d="
  M 148.24 66.38
  Q 149.25 73.51 144.05 78.06
  C 135.99 85.11 125.13 81.48 121.85 71.54
  C 120.53 61.93 126.44 54.66 136.13 55.08
  Q 145.13 55.47 148.24 66.38
  Z
  M 135.4052 75.9275
  A 7.56 7.32 86.7 0 0 142.2779 67.9586
  A 7.56 7.32 86.7 0 0 134.5348 60.8325
  A 7.56 7.32 86.7 0 0 127.6621 68.8014
  A 7.56 7.32 86.7 0 0 135.4052 75.9275
  Z"
/>
<path fill="#032732" d="
  M 106.97 77.73
  Q 110.26 91.91 100.85 101.67
  Q 100.31 102.23 100.68 102.92
  Q 101.94 105.24 103.25 107.83
  C 104.67 110.61 102.72 112.21 100.80 113.67
  A 0.74 0.73 -38.7 0 0 100.68 114.73
  C 105.68 120.66 106.49 127.68 107.98 135.24
  Q 109.40 142.47 113.71 148.55
  Q 117.54 154.31 124.21 159.58
  Q 125.21 160.38 124.44 162.23
  Q 124.27 162.65 123.81 162.90
  Q 121.73 164.03 119.86 162.59
  Q 114.02 158.11 110.31 153.27
  Q 104.02 145.19 101.99 134.73
  Q 101.40 131.65 100.43 126.71
  Q 99.43 121.65 95.71 117.30
  A 0.84 0.83 -29.9 0 0 94.80 117.06
  Q 91.35 118.33 89.61 115.65
  Q 87.92 113.04 86.22 110.23
  A 1.03 1.02 -17.8 0 0 85.24 109.73
  Q 77.07 110.41 70.68 106.91
  C 61.66 101.92 56.09 93.80 56.21 83.39
  Q 56.36 70.13 67.67 62.50
  C 73.47 58.60 80.06 57.26 86.95 58.65
  Q 102.22 61.73 106.97 77.73
  Z
  M 96.0643 98.2421
  A 20.08 19.66 45.5 0 0 96.0125 70.1401
  A 20.08 19.66 45.5 0 0 67.9157 69.5979
  A 20.08 19.66 45.5 0 0 67.9675 97.6999
  A 20.08 19.66 45.5 0 0 96.0643 98.2421
  Z
  M 92.77 107.61
  A 1.04 1.04 0.0 0 0 92.40 108.99
  L 93.38 110.80
  A 1.04 1.04 0.0 0 0 95.08 111.00
  L 96.66 109.22
  A 1.04 1.04 0.0 0 0 96.75 107.95
  L 95.99 106.81
  A 1.04 1.04 0.0 0 0 94.59 106.50
  L 92.77 107.61
  Z"
/>
<ellipse fill="#25e7c2" cx="0.00" cy="0.00" transform="translate(134.97,68.38) rotate(86.7)" rx="7.56" ry="7.32"/>
<path fill="#25e7c2" d="
  M 96.0643 98.2421
  A 20.08 19.66 45.5 0 1 67.9675 97.6999
  A 20.08 19.66 45.5 0 1 67.9157 69.5979
  A 20.08 19.66 45.5 0 1 96.0125 70.1401
  A 20.08 19.66 45.5 0 1 96.0643 98.2421
  Z
  M 76.8809 72.9160
  A 4.42 3.18 -40.9 0 0 71.4579 73.4064
  A 4.42 3.18 -40.9 0 0 70.1991 78.7040
  A 4.42 3.18 -40.9 0 0 75.6221 78.2136
  A 4.42 3.18 -40.9 0 0 76.8809 72.9160
  Z
  M 72.1412 86.7002
  A 3.19 2.74 48.8 0 0 72.1016 82.4952
  A 3.19 2.74 48.8 0 0 67.9388 81.8998
  A 3.19 2.74 48.8 0 0 67.9784 86.1048
  A 3.19 2.74 48.8 0 0 72.1412 86.7002
  Z"
/>
<path fill="#fc9126" d="
  M 148.24 66.38
  Q 165.50 65.44 181.99 68.20
  Q 191.88 69.85 200.30 74.75
  C 199.81 80.01 200.86 87.31 207.64 86.53
  C 208.75 86.40 209.73 85.69 210.75 85.46
  Q 212.40 85.09 212.63 86.77
  Q 213.87 95.87 215.32 104.45
  Q 215.84 107.54 215.41 110.50
  Q 214.65 115.73 214.51 120.78
  C 214.35 126.32 219.11 128.40 223.84 127.45
  Q 229.02 126.42 229.52 120.83
  C 229.94 116.09 230.18 111.62 231.80 107.10
  Q 235.06 97.98 238.02 88.91
  A 1.06 1.06 0.0 0 1 239.85 88.56
  Q 242.32 91.57 246.38 90.93
  L 253.17 105.32
  Q 248.11 105.43 243.65 105.46
  C 238.22 105.50 236.15 108.73 236.19 113.87
  Q 236.31 132.30 236.17 149.21
  A 2.68 2.67 20.8 0 0 237.09 151.25
  Q 238.59 152.57 239.87 152.24
  Q 242.52 151.58 242.53 148.85
  L 242.54 142.00
  A 0.57 0.57 0.0 0 1 243.11 141.43
  L 264.46 141.31
  L 266.49 143.29
  Q 266.86 143.65 266.89 144.16
  Q 267.04 147.36 267.57 150.48
  Q 267.89 152.39 266.85 152.57
  Q 261.78 150.97 259.60 154.74
  Q 259.27 155.31 258.62 155.32
  C 256.58 155.35 254.70 154.82 252.66 155.28
  C 247.12 156.54 244.81 163.84 250.75 166.65
  C 253.91 168.15 257.64 164.39 258.18 161.71
  Q 258.27 161.27 258.65 161.04
  Q 260.88 159.68 262.76 160.43
  Q 265.63 161.56 268.11 161.39
  Q 269.20 168.11 269.00 175.25
  Q 268.77 183.03 267.34 190.69
  Q 265.95 198.16 263.28 205.43
  Q 259.84 202.36 256.00 202.42
  Q 246.86 202.54 237.24 202.66
  Q 229.62 202.76 227.81 210.21
  Q 227.56 211.23 226.52 211.23
  L 201.00 211.26
  Q 196.97 211.26 200.78 209.96
  Q 218.98 203.79 223.76 186.35
  C 225.29 180.77 225.40 173.93 225.51 168.07
  Q 225.56 165.35 222.93 164.35
  Q 219.31 162.96 217.52 168.14
  Q 214.53 156.17 208.17 146.61
  C 195.54 127.63 173.23 119.24 151.02 123.32
  C 138.31 125.66 127.56 132.69 119.15 142.19
  Q 118.68 142.72 116.85 145.64
  Q 115.62 147.63 113.71 148.55
  Q 109.40 142.47 107.98 135.24
  C 106.49 127.68 105.68 120.66 100.68 114.73
  A 0.74 0.73 -38.7 0 1 100.80 113.67
  C 102.72 112.21 104.67 110.61 103.25 107.83
  Q 101.94 105.24 100.68 102.92
  Q 100.31 102.23 100.85 101.67
  Q 110.26 91.91 106.97 77.73
  L 108.96 78.26
  Q 109.46 78.39 109.92 78.17
  L 120.44 73.14
  Q 120.92 72.91 121.07 72.41
  Q 121.24 71.89 121.85 71.54
  C 125.13 81.48 135.99 85.11 144.05 78.06
  Q 149.25 73.51 148.24 66.38
  Z
  M 178.7566 83.5668
  A 3.06 2.79 69.0 0 0 180.2647 79.7102
  A 3.06 2.79 69.0 0 0 176.5634 77.8532
  A 3.06 2.79 69.0 0 0 175.0553 81.7098
  A 3.06 2.79 69.0 0 0 178.7566 83.5668
  Z
  M 136.99 98.80
  C 139.13 100.64 141.94 100.38 142.73 97.31
  C 143.45 94.56 140.80 92.46 138.31 93.78
  Q 134.28 95.92 129.95 98.17
  A 1.82 1.81 72.8 0 0 128.99 100.00
  L 129.35 102.90
  Q 129.42 103.52 129.02 103.98
  C 127.22 106.03 126.73 109.63 129.75 110.86
  C 134.00 112.58 136.22 107.47 134.04 104.22
  Q 133.33 103.17 132.55 102.21
  A 1.25 1.25 0.0 0 1 132.96 100.30
  L 136.17 98.70
  Q 136.62 98.48 136.99 98.80
  Z
  M 195.5553 103.4193
  A 2.53 2.53 0.0 0 0 194.3375 100.0550
  L 181.7138 94.1417
  A 2.53 2.53 0.0 0 0 178.3495 95.3595
  L 178.2647 95.5407
  A 2.53 2.53 0.0 0 0 179.4825 98.9050
  L 192.1062 104.8183
  A 2.53 2.53 0.0 0 0 195.4705 103.6005
  L 195.5553 103.4193
  Z
  M 247.7374 198.8585
  A 12.37 12.23 82.3 0 0 258.1997 184.9613
  A 12.37 12.23 82.3 0 0 244.4226 174.3415
  A 12.37 12.23 82.3 0 0 233.9603 188.2387
  A 12.37 12.23 82.3 0 0 247.7374 198.8585
  Z"
/>
<ellipse fill="#f9fbee" cx="0.00" cy="0.00" transform="translate(73.54,75.81) rotate(-40.9)" rx="4.42" ry="3.18"/>
<ellipse fill="#f86d30" cx="0.00" cy="0.00" transform="translate(177.66,80.71) rotate(69.0)" rx="3.06" ry="2.79"/>
<ellipse fill="#f9fbee" cx="0.00" cy="0.00" transform="translate(70.04,84.30) rotate(48.8)" rx="3.19" ry="2.74"/>
<path fill="#fc9126" d="
  M 231.58 89.16
  C 229.81 95.93 227.10 102.91 224.85 109.45
  A 1.40 1.39 19.5 0 1 223.05 110.30
  Q 221.82 109.85 221.63 108.31
  Q 220.42 98.51 219.06 88.75
  Q 218.97 88.06 219.02 87.45
  Q 219.09 86.60 219.85 86.98
  C 223.63 88.86 225.98 90.99 230.31 88.23
  Q 232.13 87.06 231.58 89.16
  Z"
/>
<path fill="#032732" d="
  M 136.17 98.70
  L 132.96 100.30
  A 1.25 1.25 0.0 0 0 132.55 102.21
  Q 133.33 103.17 134.04 104.22
  C 136.22 107.47 134.00 112.58 129.75 110.86
  C 126.73 109.63 127.22 106.03 129.02 103.98
  Q 129.42 103.52 129.35 102.90
  L 128.99 100.00
  A 1.82 1.81 72.8 0 1 129.95 98.17
  Q 134.28 95.92 138.31 93.78
  C 140.80 92.46 143.45 94.56 142.73 97.31
  C 141.94 100.38 139.13 100.64 136.99 98.80
  Q 136.62 98.48 136.17 98.70
  Z"
/>
<rect fill="#032732" x="-9.50" y="-2.63" transform="translate(186.91,99.48) rotate(25.1)" width="19.00" height="5.26" rx="2.53"/>
<path fill="#032732" d="
  M 253.17 105.32
  Q 265.48 105.58 269.25 105.39
  C 274.77 105.11 277.34 108.37 277.31 113.46
  Q 277.23 125.05 277.22 134.66
  C 277.22 141.99 270.29 141.66 264.46 141.31
  L 243.11 141.43
  A 0.57 0.57 0.0 0 0 242.54 142.00
  L 242.53 148.85
  Q 242.52 151.58 239.87 152.24
  Q 238.59 152.57 237.09 151.25
  A 2.68 2.67 20.8 0 1 236.17 149.21
  Q 236.31 132.30 236.19 113.87
  C 236.15 108.73 238.22 105.50 243.65 105.46
  Q 248.11 105.43 253.17 105.32
  Z
  M 271.1004 112.1950
  A 0.57 0.57 0.0 0 0 270.5294 111.6260
  L 243.0294 111.6740
  A 0.57 0.57 0.0 0 0 242.4604 112.2450
  L 242.4996 134.7050
  A 0.57 0.57 0.0 0 0 243.0706 135.2740
  L 270.5706 135.2260
  A 0.57 0.57 0.0 0 0 271.1396 134.6550
  L 271.1004 112.1950
  Z"
/>
<path fill="#f9fbee" d="
  M 92.77 107.61
  L 94.59 106.50
  A 1.04 1.04 0.0 0 1 95.99 106.81
  L 96.75 107.95
  A 1.04 1.04 0.0 0 1 96.66 109.22
  L 95.08 111.00
  A 1.04 1.04 0.0 0 1 93.38 110.80
  L 92.40 108.99
  A 1.04 1.04 0.0 0 1 92.77 107.61
  Z"
/>
<path fill="#fc9126" d="
  M 70.68 106.91
  Q 77.07 110.41 85.24 109.73
  A 1.03 1.02 -17.8 0 1 86.22 110.23
  Q 87.92 113.04 89.61 115.65
  Q 91.35 118.33 94.80 117.06
  A 0.84 0.83 -29.9 0 1 95.71 117.30
  Q 99.43 121.65 100.43 126.71
  Q 101.40 131.65 101.99 134.73
  Q 104.02 145.19 110.31 153.27
  L 104.86 170.44
  C 94.47 175.18 93.74 188.58 104.47 193.77
  Q 103.80 193.88 103.81 194.50
  C 89.62 187.58 86.14 170.77 85.36 156.58
  Q 85.16 153.07 81.65 152.80
  Q 81.06 152.75 80.51 153.02
  Q 78.23 154.12 78.14 156.64
  Q 78.01 160.55 78.54 165.79
  Q 80.74 187.15 96.62 200.52
  A 1.37 1.33 -70.7 0 1 97.10 201.56
  L 97.01 210.41
  Q 97.00 211.06 96.35 211.07
  L 83.12 211.29
  Q 82.51 211.29 82.14 210.82
  L 68.52 193.39
  Q 67.93 192.64 68.67 192.05
  C 75.79 186.25 67.04 176.18 59.95 182.62
  Q 56.52 169.08 57.67 155.02
  Q 68.99 153.13 71.20 143.65
  Q 72.60 137.64 70.24 132.53
  Q 67.68 126.99 61.21 124.54
  L 70.68 106.91
  Z"
/>
<path fill="#f9fbee" d="
  M 271.1396 134.6550
  A 0.57 0.57 0.0 0 1 270.5706 135.2260
  L 243.0706 135.2740
  A 0.57 0.57 0.0 0 1 242.4996 134.7050
  L 242.4604 112.2450
  A 0.57 0.57 0.0 0 1 243.0294 111.6740
  L 270.5294 111.6260
  A 0.57 0.57 0.0 0 1 271.1004 112.1950
  L 271.1396 134.6550
  Z
  M 261.01 123.35
  Q 259.96 122.48 259.14 121.32
  Q 258.87 120.95 259.04 120.53
  Q 259.37 119.66 260.34 119.16
  Q 262.05 118.28 260.40 117.30
  Q 259.80 116.95 259.07 116.77
  Q 257.53 116.41 256.93 117.87
  L 255.58 121.13
  A 2.53 2.52 -65.2 0 0 256.75 124.34
  L 259.23 125.62
  Q 259.71 125.87 259.79 126.40
  L 260.11 128.30
  A 1.40 1.40 0.0 0 0 262.17 129.30
  Q 265.21 127.61 267.87 124.52
  Q 269.47 122.67 267.60 121.09
  Q 267.42 120.93 267.21 120.79
  Q 265.21 119.47 263.90 121.48
  Q 263.20 122.57 262.21 123.36
  Q 261.61 123.84 261.01 123.35
  Z
  M 253.25 123.43
  A 1.79 1.79 0.0 0 0 253.07 120.57
  L 251.36 119.46
  A 1.79 1.79 0.0 0 0 249.05 119.78
  L 246.51 122.65
  A 1.79 1.79 0.0 0 0 246.49 124.99
  L 247.41 126.07
  A 1.79 1.79 0.0 0 0 249.93 126.27
  L 253.25 123.43
  Z"
/>
<path fill="#fc9126" d="
  M 223.62 115.31
  A 0.85 0.85 0.0 0 1 224.39 116.23
  L 224.06 120.03
  A 2.27 1.83 -85.0 0 1 222.04 122.13
  L 221.64 122.10
  A 2.27 1.83 -85.0 0 1 220.01 119.68
  L 220.35 115.87
  A 0.85 0.85 0.0 0 1 221.27 115.10
  L 223.62 115.31
  Z"
/>
<path fill="#fbcb01" d="
  M 262.21 123.36
  Q 263.20 122.57 263.90 121.48
  Q 265.21 119.47 267.21 120.79
  Q 267.42 120.93 267.60 121.09
  Q 269.47 122.67 267.87 124.52
  Q 265.21 127.61 262.17 129.30
  A 1.40 1.40 0.0 0 1 260.11 128.30
  L 259.79 126.40
  Q 259.71 125.87 259.23 125.62
  L 256.75 124.34
  A 2.53 2.52 -65.2 0 1 255.58 121.13
  L 256.93 117.87
  Q 257.53 116.41 259.07 116.77
  Q 259.80 116.95 260.40 117.30
  Q 262.05 118.28 260.34 119.16
  Q 259.37 119.66 259.04 120.53
  Q 258.87 120.95 259.14 121.32
  Q 259.96 122.48 261.01 123.35
  Q 261.61 123.84 262.21 123.36
  Z"
/>
<path fill="#fc9126" d="
  M 253.25 123.43
  L 249.93 126.27
  A 1.79 1.79 0.0 0 1 247.41 126.07
  L 246.49 124.99
  A 1.79 1.79 0.0 0 1 246.51 122.65
  L 249.05 119.78
  A 1.79 1.79 0.0 0 1 251.36 119.46
  L 253.07 120.57
  A 1.79 1.79 0.0 0 1 253.25 123.43
  Z"
/>
<path fill="#fbcb01" d="
  M 217.52 168.14
  Q 217.91 174.86 216.91 181.27
  Q 214.71 195.39 202.25 200.61
  C 196.53 203.00 189.03 202.58 182.68 202.34
  C 176.55 202.12 171.73 203.38 169.85 210.15
  Q 169.65 210.87 169.08 211.10
  C 168.37 211.39 167.42 211.17 166.65 211.21
  Q 165.25 211.29 163.82 211.23
  A 0.77 0.76 -3.8 0 1 163.10 210.61
  Q 161.48 202.17 152.68 202.39
  Q 144.82 202.58 136.72 202.36
  C 130.75 202.20 126.51 203.89 125.32 210.34
  Q 125.12 211.43 123.99 211.28
  C 123.16 211.16 122.09 211.28 121.27 211.35
  Q 120.57 211.42 120.54 210.71
  C 120.22 200.26 111.68 197.96 103.81 194.50
  Q 103.80 193.88 104.47 193.77
  Q 111.46 196.18 116.93 191.74
  C 120.58 188.77 122.86 183.77 121.42 179.21
  Q 117.63 167.23 104.86 170.44
  L 110.31 153.27
  Q 114.02 158.11 119.86 162.59
  Q 121.73 164.03 123.81 162.90
  Q 124.27 162.65 124.44 162.23
  Q 125.21 160.38 124.21 159.58
  Q 117.54 154.31 113.71 148.55
  Q 115.62 147.63 116.85 145.64
  Q 118.68 142.72 119.15 142.19
  C 127.56 132.69 138.31 125.66 151.02 123.32
  C 173.23 119.24 195.54 127.63 208.17 146.61
  Q 214.53 156.17 217.52 168.14
  Z
  M 163.5115 136.1480
  A 4.06 3.42 -3.7 0 0 159.2393 132.9971
  A 4.06 3.42 -3.7 0 0 155.4085 136.6720
  A 4.06 3.42 -3.7 0 0 159.6807 139.8229
  A 4.06 3.42 -3.7 0 0 163.5115 136.1480
  Z
  M 135.70 152.25
  L 146.66 141.92
  A 1.53 1.53 0.0 0 0 146.73 139.76
  L 146.01 139.00
  A 5.89 4.28 -43.3 0 0 138.78 139.92
  L 134.17 144.27
  A 5.89 4.28 -43.3 0 0 132.82 151.42
  L 133.54 152.19
  A 1.53 1.53 0.0 0 0 135.70 152.25
  Z
  M 155.89 186.64
  A 12.41 12.41 0.0 0 0 143.48 174.23
  A 12.41 12.41 0.0 0 0 131.07 186.64
  A 12.41 12.41 0.0 0 0 143.48 199.05
  A 12.41 12.41 0.0 0 0 155.89 186.64
  Z
  M 200.99 186.60
  A 12.44 12.44 0.0 0 0 188.55 174.16
  A 12.44 12.44 0.0 0 0 176.11 186.60
  A 12.44 12.44 0.0 0 0 188.55 199.04
  A 12.44 12.44 0.0 0 0 200.99 186.60
  Z"
/>
<path fill="#032732" d="
  M 61.21 124.54
  Q 67.68 126.99 70.24 132.53
  Q 72.60 137.64 71.20 143.65
  Q 68.99 153.13 57.67 155.02
  C 47.63 155.18 39.51 147.30 40.72 137.23
  C 41.89 127.55 51.73 121.66 61.21 124.54
  Z
  M 46.64 140.21
  A 9.70 9.67 -79.0 0 0 51.84 147.93
  A 9.68 9.67 27.8 0 0 64.80 143.92
  A 9.68 9.67 -59.2 0 0 61.61 131.25
  A 9.68 9.68 0.0 0 0 46.64 140.21
  Z"
/>
<path fill="#f9fbee" d="
  M 61.61 131.25
  Q 55.24 134.17 53.14 135.89
  Q 49.16 139.14 46.64 140.21
  A 9.68 9.68 0.0 0 1 61.61 131.25
  Z"
/>
<path fill="#fb6265" d="
  M 61.61 131.25
  A 9.68 9.67 -59.2 0 1 64.80 143.92
  A 9.68 9.67 27.8 0 1 51.84 147.93
  A 9.70 9.67 -79.0 0 1 46.64 140.21
  Q 49.16 139.14 53.14 135.89
  Q 55.24 134.17 61.61 131.25
  Z"
/>
<ellipse fill="#f9fbee" cx="0.00" cy="0.00" transform="translate(159.46,136.41) rotate(-3.7)" rx="4.06" ry="3.42"/>
<path fill="#f9fbee" d="
  M 135.70 152.25
  A 1.53 1.53 0.0 0 1 133.54 152.19
  L 132.82 151.42
  A 5.89 4.28 -43.3 0 1 134.17 144.27
  L 138.78 139.92
  A 5.89 4.28 -43.3 0 1 146.01 139.00
  L 146.73 139.76
  A 1.53 1.53 0.0 0 1 146.66 141.92
  L 135.70 152.25
  Z"
/>
<path fill="#f86d30" d="
  M 266.85 152.57
  Q 268.59 155.83 268.11 161.39
  Q 265.63 161.56 262.76 160.43
  Q 260.88 159.68 258.65 161.04
  Q 258.27 161.27 258.18 161.71
  C 257.64 164.39 253.91 168.15 250.75 166.65
  C 244.81 163.84 247.12 156.54 252.66 155.28
  C 254.70 154.82 256.58 155.35 258.62 155.32
  Q 259.27 155.31 259.60 154.74
  Q 261.78 150.97 266.85 152.57
  Z"
/>
<rect fill="#032732" x="-2.63" y="-2.65" transform="translate(48.00,168.82) rotate(42.9)" width="5.26" height="5.30" rx="1.62"/>
<path fill="#032732" d="
  M 104.47 193.77
  C 93.74 188.58 94.47 175.18 104.86 170.44
  Q 117.63 167.23 121.42 179.21
  C 122.86 183.77 120.58 188.77 116.93 191.74
  Q 111.46 196.18 104.47 193.77
  Z"
/>
<circle fill="#032732" cx="143.48" cy="186.64" r="12.41"/>
<circle fill="#032732" cx="188.55" cy="186.60" r="12.44"/>
<ellipse fill="#032732" cx="0.00" cy="0.00" transform="translate(246.08,186.60) rotate(82.3)" rx="12.37" ry="12.23"/>
<path fill="#f9fbee" d="
  M 54.98 210.77
  L 64.52 199.40
  A 0.31 0.31 0.0 0 1 65.00 199.39
  L 74.66 210.66
  A 0.31 0.31 0.0 0 1 74.42 211.18
  L 55.22 211.28
  A 0.31 0.31 0.0 0 1 54.98 210.77
  Z"
/>
<path fill="#25e7c2" d="
  M 189.48 219.07
  L 189.45 283.50
  A 0.76 0.75 -5.6 0 1 188.84 284.24
  Q 142.13 293.24 100.20 272.71
  Q 66.36 256.14 45.92 226.20
  Q 43.22 222.24 41.30 218.48
  A 0.41 0.41 0.0 0 1 41.66 217.88
  Q 48.96 217.92 56.00 217.92
  Q 120.38 218.00 188.43 218.02
  Q 189.48 218.02 189.48 219.07
  Z
  M 167.46 268.98
  C 174.84 267.80 179.80 259.86 175.39 252.99
  C 172.61 248.65 166.90 248.18 162.20 247.24
  C 158.67 246.53 156.76 241.95 160.87 240.62
  Q 165.87 239.00 169.52 242.64
  C 172.87 246.00 178.18 240.93 174.45 237.19
  C 172.52 235.27 169.99 234.28 167.45 233.43
  C 166.43 233.09 166.18 232.21 166.07 231.25
  Q 165.82 229.14 163.10 229.47
  A 1.77 1.76 81.2 0 0 161.58 231.56
  Q 161.99 233.68 159.98 233.96
  C 156.93 234.38 153.92 236.66 152.54 239.04
  C 148.85 245.43 153.00 251.92 159.70 253.76
  Q 162.70 254.59 166.03 255.15
  C 170.11 255.84 171.50 260.75 167.10 262.03
  Q 160.82 263.84 157.30 259.22
  C 154.31 255.30 148.07 259.29 151.55 264.13
  Q 154.43 268.13 160.39 268.82
  Q 161.74 268.98 161.60 270.33
  C 161.15 274.92 166.46 274.42 166.38 270.28
  Q 166.36 269.16 167.46 268.98
  Z
  M 138.4297 241.6647
  A 2.67 2.67 0.0 0 0 135.7504 239.0040
  L 80.7307 239.1960
  A 2.67 2.67 0.0 0 0 78.0700 241.8753
  L 78.0703 241.9553
  A 2.67 2.67 0.0 0 0 80.7496 244.6160
  L 135.7693 244.4240
  A 2.67 2.67 0.0 0 0 138.4300 241.7447
  L 138.4297 241.6647
  Z
  M 138.0000 254.6644
  A 2.85 2.85 0.0 0 0 135.1550 251.8094
  L 89.9551 251.7306
  A 2.85 2.85 0.0 0 0 87.1001 254.5756
  L 87.1000 254.6756
  A 2.85 2.85 0.0 0 0 89.9450 257.5306
  L 135.1449 257.6094
  A 2.85 2.85 0.0 0 0 137.9999 254.7644
  L 138.0000 254.6644
  Z"
/>
<path fill="#fc9126" d="
  M 278.62 218.84
  C 259.47 249.65 230.96 272.64 196.54 282.11
  A 0.36 0.36 0.0 0 1 196.09 281.76
  L 196.21 218.51
  A 0.29 0.28 90.0 0 1 196.49 218.22
  L 278.25 218.19
  A 0.43 0.43 0.0 0 1 278.62 218.84
  Z
  M 246.95 234.79
  Q 247.43 234.00 248.07 233.39
  Q 248.55 232.93 248.62 232.28
  Q 248.74 231.10 247.15 230.96
  A 1.90 1.81 33.8 0 0 246.17 231.13
  C 243.33 232.47 242.61 231.86 239.94 230.83
  Q 239.47 230.65 239.03 230.90
  Q 238.46 231.21 238.34 231.86
  C 238.11 233.11 239.20 234.05 239.47 235.25
  Q 239.59 235.76 239.40 236.25
  L 238.39 238.98
  A 1.35 1.35 0.0 0 0 239.83 240.79
  Q 241.60 240.56 242.81 239.48
  Q 243.27 239.07 243.79 239.39
  C 245.07 240.16 246.11 241.14 247.63 240.34
  A 1.18 1.18 0.0 0 0 248.16 238.83
  L 246.88 235.85
  Q 246.64 235.30 246.95 234.79
  Z
  M 222.6760 232.3424
  A 0.82 0.82 0.0 0 0 221.8646 231.5138
  L 217.3449 231.4665
  A 0.82 0.82 0.0 0 0 216.5163 232.2779
  L 216.4640 237.2776
  A 0.82 0.82 0.0 0 0 217.2754 238.1062
  L 221.7951 238.1535
  A 0.82 0.82 0.0 0 0 222.6237 237.3421
  L 222.6760 232.3424
  Z
  M 216.27 249.23
  L 216.48 255.83
  Q 216.53 257.63 218.33 257.50
  L 221.43 257.28
  Q 222.79 257.18 222.78 255.82
  L 222.74 249.19
  A 0.90 0.89 -2.8 0 1 223.56 248.29
  L 229.05 247.80
  Q 230.50 247.67 230.52 246.21
  L 230.57 242.37
  Q 230.60 240.45 228.71 240.78
  C 226.07 241.25 224.16 242.85 221.52 243.20
  Q 215.90 243.92 211.04 241.18
  A 1.43 1.43 0.0 0 0 208.93 242.14
  Q 208.52 244.20 208.77 246.63
  Q 208.90 247.98 210.26 248.07
  L 215.48 248.41
  Q 216.25 248.45 216.27 249.23
  Z"
/>
<path fill="#032732" d="
  M 167.46 268.98
  Q 166.36 269.16 166.38 270.28
  C 166.46 274.42 161.15 274.92 161.60 270.33
  Q 161.74 268.98 160.39 268.82
  Q 154.43 268.13 151.55 264.13
  C 148.07 259.29 154.31 255.30 157.30 259.22
  Q 160.82 263.84 167.10 262.03
  C 171.50 260.75 170.11 255.84 166.03 255.15
  Q 162.70 254.59 159.70 253.76
  C 153.00 251.92 148.85 245.43 152.54 239.04
  C 153.92 236.66 156.93 234.38 159.98 233.96
  Q 161.99 233.68 161.58 231.56
  A 1.77 1.76 81.2 0 1 163.10 229.47
  Q 165.82 229.14 166.07 231.25
  C 166.18 232.21 166.43 233.09 167.45 233.43
  C 169.99 234.28 172.52 235.27 174.45 237.19
  C 178.18 240.93 172.87 246.00 169.52 242.64
  Q 165.87 239.00 160.87 240.62
  C 156.76 241.95 158.67 246.53 162.20 247.24
  C 166.90 248.18 172.61 248.65 175.39 252.99
  C 179.80 259.86 174.84 267.80 167.46 268.98
  Z"
/>
<path fill="#032732" d="
  M 246.88 235.85
  L 248.16 238.83
  A 1.18 1.18 0.0 0 1 247.63 240.34
  C 246.11 241.14 245.07 240.16 243.79 239.39
  Q 243.27 239.07 242.81 239.48
  Q 241.60 240.56 239.83 240.79
  A 1.35 1.35 0.0 0 1 238.39 238.98
  L 239.40 236.25
  Q 239.59 235.76 239.47 235.25
  C 239.20 234.05 238.11 233.11 238.34 231.86
  Q 238.46 231.21 239.03 230.90
  Q 239.47 230.65 239.94 230.83
  C 242.61 231.86 243.33 232.47 246.17 231.13
  A 1.90 1.81 33.8 0 1 247.15 230.96
  Q 248.74 231.10 248.62 232.28
  Q 248.55 232.93 248.07 233.39
  Q 247.43 234.00 246.95 234.79
  Q 246.64 235.30 246.88 235.85
  Z"
/>
<rect fill="#032732" x="-3.08" y="-3.32" transform="translate(219.57,234.81) rotate(0.6)" width="6.16" height="6.64" rx="0.82"/>
<rect fill="#032732" x="-30.18" y="-2.71" transform="translate(108.25,241.81) rotate(-0.2)" width="60.36" height="5.42" rx="2.67"/>
<path fill="#032732" d="
  M 215.48 248.41
  L 210.26 248.07
  Q 208.90 247.98 208.77 246.63
  Q 208.52 244.20 208.93 242.14
  A 1.43 1.43 0.0 0 1 211.04 241.18
  Q 215.90 243.92 221.52 243.20
  C 224.16 242.85 226.07 241.25 228.71 240.78
  Q 230.60 240.45 230.57 242.37
  L 230.52 246.21
  Q 230.50 247.67 229.05 247.80
  L 223.56 248.29
  A 0.90 0.89 -2.8 0 0 222.74 249.19
  L 222.78 255.82
  Q 222.79 257.18 221.43 257.28
  L 218.33 257.50
  Q 216.53 257.63 216.48 255.83
  L 216.27 249.23
  Q 216.25 248.45 215.48 248.41
  Z"
/>
<rect fill="#032732" x="-25.45" y="-2.90" transform="translate(112.55,254.67) rotate(0.1)" width="50.90" height="5.80" rx="2.85"/>
</svg>
